<svg id="SvgjsSvg1001" width="288" height="288" xmlns="http://www.w3.org/2000/svg" version="1.1" xmlns:xlink="http://www.w3.org/1999/xlink" xmlns:svgjs="http://svgjs.com/svgjs"><defs id="SvgjsDefs1002"></defs><g id="SvgjsG1008"><svg xmlns="http://www.w3.org/2000/svg" width="288" height="288" fill="none" viewBox="0 0 451 304"><g filter="url(#filter0_d)" fill="#000000" class="color000 svgShape"><path fill="#f58700" d="M220.95 18.6381L79.7239 83.6323L60.5813 88.916V112.882C60.3842 116.222 63.1031 119.594 68.7104 122.137L186.281 175.546C197.068 180.438 214.718 180.437 225.504 175.545L382.39 104.385C388.172 101.762 390.855 98.2447 390.437 94.7921L390.481 94.8119V70.3161L368.488 80.2915L276.103 18.6381C265.317 13.7464 231.736 13.7458 220.95 18.6381Z" class="color90CAF9 svgShape"></path></g><path fill="#fd5822" d="M225.497 8.89503L68.6108 80.0551C57.8249 84.9473 57.9232 92.9079 68.7096 97.7996L186.281 151.208C197.067 156.1 214.717 156.1 225.503 151.207L382.389 80.0472C393.175 75.155 393.175 67.1499 382.388 62.2582L264.719 8.89405C253.933 4.00234 236.283 4.00277 225.497 8.89503ZM264.72 26.6831L235.306 84.4982L107.834 97.8431L88.2223 88.9491L215.694 75.6041L245.109 17.7891L264.72 26.6831Z" class="color2196F3 svgShape"></path><path fill="url(#paint0_linear)" d="M225.497 8.89503L68.6108 80.0551C57.8249 84.9473 57.9232 92.9079 68.7096 97.7996L186.281 151.208C197.067 156.1 214.717 156.1 225.503 151.207L382.389 80.0472C393.175 75.155 393.175 67.1499 382.388 62.2582L264.719 8.89405C253.933 4.00234 236.283 4.00277 225.497 8.89503ZM264.72 26.6831L235.306 84.4982L107.834 97.8431L88.2223 88.9491L215.694 75.6041L245.109 17.7891L264.72 26.6831Z"></path><path fill="#ffffff" d="M239.24 85.8807L268.654 28.0656L249.043 19.1716L219.628 76.9867L92.1562 90.3317L111.768 99.2257L239.24 85.8807Z" class="colorE3F2FD svgShape"></path><defs><linearGradient id="paint0_linear" x1="59.086" x2="232.865" y1="80.051" y2="228.078" gradientUnits="userSpaceOnUse"><stop stop-color="#fd5822" class="stopColor6DBAF7 svgShape"></stop><stop offset="1" stop-color="#ffffff" stop-opacity="0" class="stopColorfff svgShape"></stop></linearGradient><filter id="filter0_d" width="449.91" height="288.245" x=".571" y="14.969" color-interpolation-filters="sRGB" filterUnits="userSpaceOnUse"><feFlood flood-opacity="0" result="BackgroundImageFix"></feFlood><feColorMatrix in="SourceAlpha" values="0 0 0 0 0 0 0 0 0 0 0 0 0 0 0 0 0 0 127 0"></feColorMatrix><feOffset dy="64"></feOffset><feGaussianBlur stdDeviation="30"></feGaussianBlur><feColorMatrix values="0 0 0 0 0.0823529 0 0 0 0 0.396079 0 0 0 0 0.752941 0 0 0 0.27 0"></feColorMatrix><feBlend in2="BackgroundImageFix" result="effect1_dropShadow"></feBlend><feBlend in="SourceGraphic" in2="effect1_dropShadow" result="shape"></feBlend></filter></defs></svg></g></svg>