<?xml version="1.0" encoding="iso-8859-1"?>
<!-- Generator: Adobe Illustrator 19.0.0, SVG Export Plug-In . SVG Version: 6.00 Build 0)  -->
<svg version="1.1" id="Capa_1" xmlns="http://www.w3.org/2000/svg" xmlns:xlink="http://www.w3.org/1999/xlink" x="0px" y="0px"
	 viewBox="0 0 464 464" style="enable-background:new 0 0 464 464;" xml:space="preserve">
<polygon style="fill:#E2DEDC;" points="252,284 284,252 88,56 80,24 16,0 0,16 24,80 56,88 "/>
<polygon style="fill:#63C9B5;" points="224,288 288,224 320,256 304,272 328,296 344,280 464,400 400,464 280,344 296,328 272,304 
	256,320 "/>
<g>
	
		<rect x="384.031" y="342.024" transform="matrix(-0.7071 0.7071 -0.7071 -0.7071 935.0847 364.6024)" style="fill:#F9F1ED;" width="16" height="67.879"/>
	
		<rect x="335.992" y="316.655" transform="matrix(-0.7071 0.7071 -0.7071 -0.7071 819.1383 316.6346)" style="fill:#F9F1ED;" width="16" height="22.624"/>
</g>
<polygon style="fill:#E05346;" points="336,176 408,176 464,120 464,64 408,120 344,120 344,56 400,0 344,0 288,56 288,128 128,288 
	56,288 0,344 0,400 56,344 120,344 120,408 64,464 120,464 176,408 176,336 "/>
<g>
</g>
<g>
</g>
<g>
</g>
<g>
</g>
<g>
</g>
<g>
</g>
<g>
</g>
<g>
</g>
<g>
</g>
<g>
</g>
<g>
</g>
<g>
</g>
<g>
</g>
<g>
</g>
<g>
</g>
</svg>
